# xmcd
#
# Track frame offsets:
#	225
#	18512
#	39212
#	61487
#	85203
#	103517
#	121646
#	140909
#	161879
#	181454
#	201871
#	222384
#
# Disc length: 3227 seconds
#
# Revision: 1
# Processed by: cddbd v1.5PL3 Copyright (c) Steve Scherf et al.
# Submitted via: audiograbber 1.83.01
#
DISCID=ab0c980c
DTITLE=Alegria - Somos parte de tu vida
DYEAR=1999
DGENRE=Tropical
TTITLE0=Tarjetita
TTITLE1=Parte de tu vida
TTITLE2=Si me dejas ahora
TTITLE3=Vuelve a mi
TTITLE4=Sin rumbo
TTITLE5=Mala mujer
TTITLE6=Chuquicamata
TTITLE7=Me amas
TTITLE8=Aquella noche
TTITLE9=No podré olvidarte
TTITLE10=Que tristeza
TTITLE11=Mujeres y cerveza
EXTD=
EXTT0=
EXTT1=
EXTT2=
EXTT3=
EXTT4=
EXTT5=
EXTT6=
EXTT7=
EXTT8=
EXTT9=
EXTT10=
EXTT11=
PLAYORDER=
